%TF.GenerationSoftware,KiCad,Pcbnew,(6.0.8)*%
%TF.CreationDate,2023-02-03T15:48:26-08:00*%
%TF.ProjectId,RP2040_minimal,52503230-3430-45f6-9d69-6e696d616c2e,REV1*%
%TF.SameCoordinates,Original*%
%TF.FileFunction,Soldermask,Bot*%
%TF.FilePolarity,Negative*%
%FSLAX46Y46*%
G04 Gerber Fmt 4.6, Leading zero omitted, Abs format (unit mm)*
G04 Created by KiCad (PCBNEW (6.0.8)) date 2023-02-03 15:48:26*
%MOMM*%
%LPD*%
G01*
G04 APERTURE LIST*
G04 Aperture macros list*
%AMRoundRect*
0 Rectangle with rounded corners*
0 $1 Rounding radius*
0 $2 $3 $4 $5 $6 $7 $8 $9 X,Y pos of 4 corners*
0 Add a 4 corners polygon primitive as box body*
4,1,4,$2,$3,$4,$5,$6,$7,$8,$9,$2,$3,0*
0 Add four circle primitives for the rounded corners*
1,1,$1+$1,$2,$3*
1,1,$1+$1,$4,$5*
1,1,$1+$1,$6,$7*
1,1,$1+$1,$8,$9*
0 Add four rect primitives between the rounded corners*
20,1,$1+$1,$2,$3,$4,$5,0*
20,1,$1+$1,$4,$5,$6,$7,0*
20,1,$1+$1,$6,$7,$8,$9,0*
20,1,$1+$1,$8,$9,$2,$3,0*%
G04 Aperture macros list end*
%TA.AperFunction,Profile*%
%ADD10C,0.010000*%
%TD*%
%ADD11C,0.600000*%
%ADD12O,0.900000X2.000000*%
%ADD13O,0.900000X1.700000*%
%ADD14C,2.700000*%
%ADD15RoundRect,0.250000X-0.600000X-0.725000X0.600000X-0.725000X0.600000X0.725000X-0.600000X0.725000X0*%
%ADD16O,1.700000X1.950000*%
%ADD17R,1.700000X1.700000*%
%ADD18O,1.700000X1.700000*%
G04 APERTURE END LIST*
D10*
X63711300Y-123000000D02*
G75*
G03*
X66711320Y-126000000I3000000J0D01*
G01*
X63711320Y-123000000D02*
X63711320Y-71010000D01*
X66711320Y-126000000D02*
X131690000Y-126000000D01*
X134690000Y-71010000D02*
X134690000Y-123000000D01*
X134690000Y-71010000D02*
G75*
G03*
X131690000Y-68010000I-3000000J0D01*
G01*
X131690000Y-126000000D02*
G75*
G03*
X134690000Y-123000000I0J3000000D01*
G01*
X66711320Y-68010020D02*
G75*
G03*
X63711320Y-71010000I-20J-2999980D01*
G01*
X66711320Y-68010000D02*
X131690000Y-68010000D01*
D11*
%TO.C,J1*%
X102590000Y-73150000D03*
X96810000Y-73150000D03*
D12*
X95380000Y-73630000D03*
X104020000Y-73630000D03*
D13*
X104020000Y-69460000D03*
X95380000Y-69460000D03*
%TD*%
D14*
%TO.C,H2*%
X130590000Y-71850000D03*
%TD*%
%TO.C,H3*%
X130590000Y-122000000D03*
%TD*%
%TO.C,H1*%
X67590000Y-72000000D03*
%TD*%
%TO.C,H4*%
X67590000Y-122000000D03*
%TD*%
D15*
%TO.C,J12*%
X68000000Y-104500000D03*
D16*
X70500000Y-104500000D03*
X73000000Y-104500000D03*
X75500000Y-104500000D03*
X78000000Y-104500000D03*
%TD*%
D15*
%TO.C,J3*%
X118090000Y-111475000D03*
D16*
X120590000Y-111475000D03*
X123090000Y-111475000D03*
X125590000Y-111475000D03*
X128090000Y-111475000D03*
X130590000Y-111475000D03*
%TD*%
D17*
%TO.C,J14*%
X90265000Y-121950000D03*
D18*
X92805000Y-121950000D03*
X95345000Y-121950000D03*
X97885000Y-121950000D03*
X100425000Y-121950000D03*
X102965000Y-121950000D03*
X105505000Y-121950000D03*
X108045000Y-121950000D03*
X110585000Y-121950000D03*
X113125000Y-121950000D03*
X115665000Y-121950000D03*
X118205000Y-121950000D03*
%TD*%
D15*
%TO.C,J8*%
X123090000Y-83475000D03*
D16*
X125590000Y-83475000D03*
X128090000Y-83475000D03*
X130590000Y-83475000D03*
%TD*%
D15*
%TO.C,J7*%
X79690000Y-120025000D03*
D16*
X82190000Y-120025000D03*
X84690000Y-120025000D03*
%TD*%
D15*
%TO.C,J6*%
X68000000Y-90500000D03*
D16*
X70500000Y-90500000D03*
X73000000Y-90500000D03*
X75500000Y-90500000D03*
X78000000Y-90500000D03*
%TD*%
D15*
%TO.C,J13*%
X68000000Y-83500000D03*
D16*
X70500000Y-83500000D03*
X73000000Y-83500000D03*
X75500000Y-83500000D03*
%TD*%
D15*
%TO.C,J9*%
X120590000Y-97475000D03*
D16*
X123090000Y-97475000D03*
X125590000Y-97475000D03*
X128090000Y-97475000D03*
X130590000Y-97475000D03*
%TD*%
D15*
%TO.C,J10*%
X68000000Y-97500000D03*
D16*
X70500000Y-97500000D03*
X73000000Y-97500000D03*
X75500000Y-97500000D03*
X78000000Y-97500000D03*
%TD*%
D15*
%TO.C,J5*%
X120590000Y-90475000D03*
D16*
X123090000Y-90475000D03*
X125590000Y-90475000D03*
X128090000Y-90475000D03*
X130590000Y-90475000D03*
%TD*%
D15*
%TO.C,J11*%
X120590000Y-104475000D03*
D16*
X123090000Y-104475000D03*
X125590000Y-104475000D03*
X128090000Y-104475000D03*
X130590000Y-104475000D03*
%TD*%
D15*
%TO.C,J4*%
X68000000Y-111500000D03*
D16*
X70500000Y-111500000D03*
X73000000Y-111500000D03*
X75500000Y-111500000D03*
X78000000Y-111500000D03*
X80500000Y-111500000D03*
%TD*%
M02*
