M48
; DRILL file {KiCad (6.0.8)} date Fri 03 Feb 2023 03:48:32 PM PST
; FORMAT={-:-/ absolute / inch / decimal}
; #@! TF.CreationDate,2023-02-03T15:48:32-08:00
; #@! TF.GenerationSoftware,Kicad,Pcbnew,(6.0.8)
; #@! TF.FileFunction,Plated,1,2,PTH
FMAT,2
INCH
; #@! TA.AperFunction,Plated,PTH,ViaDrill
T1C0.0138
; #@! TA.AperFunction,Plated,PTH,ComponentDrill
T2C0.0138
; #@! TA.AperFunction,Plated,PTH,ComponentDrill
T3C0.0236
; #@! TA.AperFunction,Plated,PTH,ComponentDrill
T4C0.0374
; #@! TA.AperFunction,Plated,PTH,ComponentDrill
T5C0.0394
%
G90
G05
T1
X2.5429Y-2.9528
X2.5429Y-3.0315
X2.5429Y-3.1102
X2.5429Y-3.189
X2.5429Y-3.2677
X2.5429Y-3.3465
X2.5429Y-3.4252
X2.5429Y-3.5039
X2.5429Y-3.5827
X2.5429Y-3.6614
X2.5429Y-3.7402
X2.5429Y-3.8189
X2.5429Y-3.8976
X2.5429Y-3.9764
X2.5429Y-4.0551
X2.5429Y-4.1339
X2.5429Y-4.2126
X2.5429Y-4.2913
X2.5429Y-4.3701
X2.5429Y-4.4488
X2.5429Y-4.5276
X2.5429Y-4.6063
X2.5429Y-4.685
X2.5429Y-4.7638
X2.6315Y-4.6555
X2.7004Y-4.9213
X2.7102Y-4.5768
X2.7693Y-4.6949
X2.7791Y-4.9213
X2.8087Y-4.5079
X2.8185Y-2.7165
X2.8579Y-4.9213
X2.8972Y-2.7165
X2.9366Y-4.9213
X2.9445Y-3.0945
X2.976Y-2.7165
X3.0154Y-4.9213
X3.0488Y-4.6449
X3.0547Y-2.7165
X3.0941Y-4.9213
X3.1335Y-2.7165
X3.1728Y-4.9213
X3.2122Y-2.7165
X3.235Y-3.7626
X3.2516Y-4.9213
X3.2587Y-3.9118
X3.2634Y-3.3618
X3.2638Y-3.5843
X3.2909Y-2.7165
X3.3303Y-4.9213
X3.3697Y-2.7165
X3.4091Y-4.9213
X3.4484Y-2.7165
X3.4878Y-4.9213
X3.5272Y-2.7165
X3.5665Y-4.9213
X3.6059Y-2.7165
X3.6157Y-3.5098
X3.622Y-3.9843
X3.6311Y-3.7476
X3.6453Y-4.9213
X3.6472Y-3.8285
X3.6521Y-3.864
X3.6575Y-3.9
X3.6579Y-3.5098
X3.6846Y-2.7165
X3.6969Y-3.5098
X3.724Y-4.9213
X3.7307Y-4.2004
X3.7346Y-2.9823
X3.7394Y-3.7378
X3.7413Y-4.1689
X3.7436Y-4.3598
X3.747Y-4.2913
X3.7657Y-2.9823
X3.7728Y-3.6195
X3.7929Y-4.5571
X3.7941Y-2.9827
X3.7988Y-4.1937
X3.8028Y-4.9213
X3.811Y-4.3858
X3.8339Y-2.724
X3.8539Y-4.4449
X3.8618Y-2.9833
X3.8618Y-3.0128
X3.8815Y-4.9213
X3.887Y-3.3614
X3.8894Y-4.3858
X3.8927Y-2.7248
X3.8976Y-3.5906
X3.9012Y-3.5039
X3.9012Y-4.5571
X3.9012Y-4.6555
X3.9195Y-4.2109
X3.9291Y-3.748
X3.9301Y-2.8488
X3.937Y-3.5906
X3.9406Y-3.5039
X3.952Y-4.2434
X3.9596Y-2.8488
X3.9602Y-2.7256
X3.9602Y-4.9213
X3.9606Y-4.0197
X3.9646Y-3.8543
X3.967Y-4.2909
X3.9685Y-4.1417
X3.9898Y-4.7244
X3.9961Y-4.2434
X4.0193Y-4.5571
X4.0193Y-4.6555
X4.024Y-2.7256
X4.039Y-4.9213
X4.0539Y-2.9898
X4.0551Y-3.6299
X4.0587Y-3.5039
X4.0862Y-2.9898
X4.0945Y-3.6299
X4.1043Y-4.328
X4.1177Y-4.9213
X4.1224Y-2.9906
X4.1413Y-4.1433
X4.1547Y-2.9906
X4.1571Y-3.6024
X4.1964Y-3.5037
X4.1965Y-2.7165
X4.1965Y-4.9213
X4.2008Y-3.7791
X4.2339Y-4.1465
X4.2484Y-3.7638
X4.252Y-3.2016
X4.252Y-3.2283
X4.252Y-3.2555
X4.252Y-3.2843
X4.252Y-3.3165
X4.252Y-3.9884
X4.2669Y-4.1626
X4.2677Y-4.198
X4.2752Y-2.7165
X4.2752Y-4.9213
X4.3028Y-3.7303
X4.3204Y-3.7818
X4.3244Y-3.5925
X4.3244Y-3.6614
X4.3413Y-3.7303
X4.3437Y-4.2673
X4.3539Y-2.7165
X4.3539Y-4.9213
X4.4228Y-3.5925
X4.4228Y-3.6614
X4.4327Y-2.7165
X4.4327Y-4.9213
X4.5114Y-2.7165
X4.5114Y-4.9213
X4.5303Y-3.3287
X4.572Y-4.5335
X4.5902Y-2.7165
X4.5902Y-4.0453
X4.5902Y-4.9213
X4.6Y-3.9173
X4.6035Y-3.4902
X4.6689Y-2.7165
X4.6689Y-4.9213
X4.7476Y-2.7165
X4.7476Y-4.9213
X4.8264Y-2.7165
X4.8264Y-4.9213
X4.9051Y-2.7165
X4.9051Y-4.9213
X4.961Y-3.122
X4.9839Y-2.7165
X4.9839Y-4.9213
X5.0626Y-2.7165
X5.0626Y-4.9213
X5.1413Y-4.9213
X5.2594Y-2.9528
X5.2594Y-3.0315
X5.2594Y-3.1102
X5.2594Y-3.189
X5.2594Y-3.2677
X5.2594Y-3.3465
X5.2594Y-3.4252
X5.2594Y-3.5039
X5.2594Y-3.5827
X5.2594Y-3.6614
X5.2594Y-3.7402
X5.2594Y-3.8189
X5.2594Y-3.8976
X5.2594Y-3.9764
X5.2594Y-4.0551
X5.2594Y-4.1339
X5.2594Y-4.2126
X5.2594Y-4.2913
X5.2594Y-4.3701
X5.2594Y-4.4488
X5.2594Y-4.5276
X5.2594Y-4.6063
X5.2594Y-4.685
X5.2594Y-4.7638
T2
X3.8868Y-3.8868
X3.8868Y-3.937
X3.8868Y-3.9872
X3.937Y-3.8868
X3.937Y-3.937
X3.937Y-3.9872
X3.9872Y-3.8868
X3.9872Y-3.937
X3.9872Y-3.9872
T4
X2.6772Y-3.2874
X2.6772Y-3.563
X2.6772Y-3.8386
X2.6772Y-4.1142
X2.6772Y-4.3898
X2.7756Y-3.2874
X2.7756Y-3.563
X2.7756Y-3.8386
X2.7756Y-4.1142
X2.7756Y-4.3898
X2.874Y-3.2874
X2.874Y-3.563
X2.874Y-3.8386
X2.874Y-4.1142
X2.874Y-4.3898
X2.9724Y-3.2874
X2.9724Y-3.563
X2.9724Y-3.8386
X2.9724Y-4.1142
X2.9724Y-4.3898
X3.0709Y-3.563
X3.0709Y-3.8386
X3.0709Y-4.1142
X3.0709Y-4.3898
X3.1374Y-4.7254
X3.1693Y-4.3898
X3.2358Y-4.7254
X3.3343Y-4.7254
X4.6492Y-4.3888
X4.7476Y-3.562
X4.7476Y-3.8376
X4.7476Y-4.1132
X4.7476Y-4.3888
X4.8461Y-3.2864
X4.8461Y-3.562
X4.8461Y-3.8376
X4.8461Y-4.1132
X4.8461Y-4.3888
X4.9445Y-3.2864
X4.9445Y-3.562
X4.9445Y-3.8376
X4.9445Y-4.1132
X4.9445Y-4.3888
X5.0429Y-3.2864
X5.0429Y-3.562
X5.0429Y-3.8376
X5.0429Y-4.1132
X5.0429Y-4.3888
X5.1413Y-3.2864
X5.1413Y-3.562
X5.1413Y-3.8376
X5.1413Y-4.1132
X5.1413Y-4.3888
T5
X3.5537Y-4.8012
X3.6537Y-4.8012
X3.7537Y-4.8012
X3.8537Y-4.8012
X3.9537Y-4.8012
X4.0537Y-4.8012
X4.1537Y-4.8012
X4.2537Y-4.8012
X4.3537Y-4.8012
X4.4537Y-4.8012
X4.5537Y-4.8012
X4.6537Y-4.8012
T3
G00X3.7551Y-2.7189
M15
G01X3.7551Y-2.7504
M16
G05
G00X3.7551Y-2.8772
M15
G01X3.7551Y-2.9205
M16
G05
G00X4.0953Y-2.7189
M15
G01X4.0953Y-2.7504
M16
G05
G00X4.0953Y-2.8772
M15
G01X4.0953Y-2.9205
M16
G05
T0
M30
