%TF.GenerationSoftware,KiCad,Pcbnew,(6.0.8)*%
%TF.CreationDate,2023-02-03T15:48:26-08:00*%
%TF.ProjectId,RP2040_minimal,52503230-3430-45f6-9d69-6e696d616c2e,REV1*%
%TF.SameCoordinates,Original*%
%TF.FileFunction,Soldermask,Top*%
%TF.FilePolarity,Negative*%
%FSLAX46Y46*%
G04 Gerber Fmt 4.6, Leading zero omitted, Abs format (unit mm)*
G04 Created by KiCad (PCBNEW (6.0.8)) date 2023-02-03 15:48:26*
%MOMM*%
%LPD*%
G01*
G04 APERTURE LIST*
G04 Aperture macros list*
%AMRoundRect*
0 Rectangle with rounded corners*
0 $1 Rounding radius*
0 $2 $3 $4 $5 $6 $7 $8 $9 X,Y pos of 4 corners*
0 Add a 4 corners polygon primitive as box body*
4,1,4,$2,$3,$4,$5,$6,$7,$8,$9,$2,$3,0*
0 Add four circle primitives for the rounded corners*
1,1,$1+$1,$2,$3*
1,1,$1+$1,$4,$5*
1,1,$1+$1,$6,$7*
1,1,$1+$1,$8,$9*
0 Add four rect primitives between the rounded corners*
20,1,$1+$1,$2,$3,$4,$5,0*
20,1,$1+$1,$4,$5,$6,$7,0*
20,1,$1+$1,$6,$7,$8,$9,0*
20,1,$1+$1,$8,$9,$2,$3,0*%
%AMFreePoly0*
4,1,22,0.550000,-0.750000,0.000000,-0.750000,0.000000,-0.745033,-0.079941,-0.743568,-0.215256,-0.701293,-0.333266,-0.622738,-0.424486,-0.514219,-0.481581,-0.384460,-0.499164,-0.250000,-0.500000,-0.250000,-0.500000,0.250000,-0.499164,0.250000,-0.499963,0.256109,-0.478152,0.396186,-0.417904,0.524511,-0.324060,0.630769,-0.204165,0.706417,-0.067858,0.745374,0.000000,0.744959,0.000000,0.750000,
0.550000,0.750000,0.550000,-0.750000,0.550000,-0.750000,$1*%
%AMFreePoly1*
4,1,20,0.000000,0.744959,0.073905,0.744508,0.209726,0.703889,0.328688,0.626782,0.421226,0.519385,0.479903,0.390333,0.500000,0.250000,0.500000,-0.250000,0.499851,-0.262216,0.476331,-0.402017,0.414519,-0.529596,0.319384,-0.634700,0.198574,-0.708877,0.061801,-0.746166,0.000000,-0.745033,0.000000,-0.750000,-0.550000,-0.750000,-0.550000,0.750000,0.000000,0.750000,0.000000,0.744959,
0.000000,0.744959,$1*%
G04 Aperture macros list end*
%TA.AperFunction,Profile*%
%ADD10C,0.010000*%
%TD*%
%ADD11C,0.600000*%
%ADD12R,0.600000X1.160000*%
%ADD13R,0.300000X1.160000*%
%ADD14O,0.900000X2.000000*%
%ADD15O,0.900000X1.700000*%
%ADD16RoundRect,0.243750X-0.243750X-0.456250X0.243750X-0.456250X0.243750X0.456250X-0.243750X0.456250X0*%
%ADD17RoundRect,0.147500X0.172500X-0.147500X0.172500X0.147500X-0.172500X0.147500X-0.172500X-0.147500X0*%
%ADD18RoundRect,0.147500X0.147500X0.172500X-0.147500X0.172500X-0.147500X-0.172500X0.147500X-0.172500X0*%
%ADD19RoundRect,0.147500X-0.172500X0.147500X-0.172500X-0.147500X0.172500X-0.147500X0.172500X0.147500X0*%
%ADD20R,1.500000X2.000000*%
%ADD21R,3.800000X2.000000*%
%ADD22RoundRect,0.150000X-0.650000X-0.150000X0.650000X-0.150000X0.650000X0.150000X-0.650000X0.150000X0*%
%ADD23RoundRect,0.147500X-0.147500X-0.172500X0.147500X-0.172500X0.147500X0.172500X-0.147500X0.172500X0*%
%ADD24RoundRect,0.050000X-0.387500X-0.050000X0.387500X-0.050000X0.387500X0.050000X-0.387500X0.050000X0*%
%ADD25RoundRect,0.050000X-0.050000X-0.387500X0.050000X-0.387500X0.050000X0.387500X-0.050000X0.387500X0*%
%ADD26RoundRect,0.144000X-1.456000X-1.456000X1.456000X-1.456000X1.456000X1.456000X-1.456000X1.456000X0*%
%ADD27C,2.700000*%
%ADD28R,5.600000X2.100000*%
%ADD29RoundRect,0.250000X-0.600000X-0.725000X0.600000X-0.725000X0.600000X0.725000X-0.600000X0.725000X0*%
%ADD30O,1.700000X1.950000*%
%ADD31RoundRect,0.140000X-0.140000X-0.170000X0.140000X-0.170000X0.140000X0.170000X-0.140000X0.170000X0*%
%ADD32RoundRect,0.140000X0.140000X0.170000X-0.140000X0.170000X-0.140000X-0.170000X0.140000X-0.170000X0*%
%ADD33RoundRect,0.140000X0.170000X-0.140000X0.170000X0.140000X-0.170000X0.140000X-0.170000X-0.140000X0*%
%ADD34RoundRect,0.150000X-0.587500X-0.150000X0.587500X-0.150000X0.587500X0.150000X-0.587500X0.150000X0*%
%ADD35R,1.700000X1.700000*%
%ADD36O,1.700000X1.700000*%
%ADD37RoundRect,0.140000X-0.170000X0.140000X-0.170000X-0.140000X0.170000X-0.140000X0.170000X0.140000X0*%
%ADD38FreePoly0,180.000000*%
%ADD39R,1.000000X1.500000*%
%ADD40FreePoly1,180.000000*%
%ADD41R,0.900000X1.000000*%
%ADD42FreePoly0,0.000000*%
%ADD43FreePoly1,0.000000*%
%ADD44RoundRect,0.135000X-0.185000X0.135000X-0.185000X-0.135000X0.185000X-0.135000X0.185000X0.135000X0*%
%ADD45RoundRect,0.150000X0.587500X0.150000X-0.587500X0.150000X-0.587500X-0.150000X0.587500X-0.150000X0*%
G04 APERTURE END LIST*
D10*
X63711300Y-123000000D02*
G75*
G03*
X66711320Y-126000000I3000000J0D01*
G01*
X63711320Y-123000000D02*
X63711320Y-71010000D01*
X66711320Y-126000000D02*
X131690000Y-126000000D01*
X134690000Y-71010000D02*
X134690000Y-123000000D01*
X134690000Y-71010000D02*
G75*
G03*
X131690000Y-68010000I-3000000J0D01*
G01*
X131690000Y-126000000D02*
G75*
G03*
X134690000Y-123000000I0J3000000D01*
G01*
X66711320Y-68010020D02*
G75*
G03*
X63711320Y-71010000I-20J-2999980D01*
G01*
X66711320Y-68010000D02*
X131690000Y-68010000D01*
D11*
%TO.C,J1*%
X102590000Y-73150000D03*
X96810000Y-73150000D03*
D12*
X102900000Y-74210000D03*
X102100000Y-74210000D03*
D13*
X100950000Y-74210000D03*
X99950000Y-74210000D03*
X99450000Y-74210000D03*
X98450000Y-74210000D03*
D12*
X97300000Y-74210000D03*
X96500000Y-74210000D03*
X96500000Y-74210000D03*
X97300000Y-74210000D03*
D13*
X97950000Y-74210000D03*
X98950000Y-74210000D03*
X100450000Y-74210000D03*
X101450000Y-74210000D03*
D12*
X102100000Y-74210000D03*
X102900000Y-74210000D03*
D14*
X95380000Y-73630000D03*
X104020000Y-73630000D03*
D15*
X104020000Y-69460000D03*
X95380000Y-69460000D03*
%TD*%
D16*
%TO.C,C4*%
X109622500Y-89350000D03*
X111497500Y-89350000D03*
%TD*%
D17*
%TO.C,C10*%
X104000000Y-94000000D03*
X104000000Y-93030000D03*
%TD*%
%TO.C,C8*%
X103000000Y-94000000D03*
X103000000Y-93030000D03*
%TD*%
D18*
%TO.C,C13*%
X94000000Y-101200000D03*
X93030000Y-101200000D03*
%TD*%
%TO.C,C5*%
X96670000Y-82830000D03*
X95700000Y-82830000D03*
%TD*%
D19*
%TO.C,R2*%
X91010000Y-81815000D03*
X91010000Y-82785000D03*
%TD*%
D20*
%TO.C,U1*%
X110300000Y-79700000D03*
X108000000Y-79700000D03*
D21*
X108000000Y-86000000D03*
D20*
X105700000Y-79700000D03*
%TD*%
D22*
%TO.C,U2*%
X89450000Y-85370000D03*
X89450000Y-86640000D03*
X89450000Y-87910000D03*
X89450000Y-89180000D03*
X96650000Y-89180000D03*
X96650000Y-87910000D03*
X96650000Y-86640000D03*
X96650000Y-85370000D03*
%TD*%
D23*
%TO.C,C3*%
X99000000Y-109000000D03*
X99970000Y-109000000D03*
%TD*%
D17*
%TO.C,R1*%
X89510000Y-82785000D03*
X89510000Y-81815000D03*
%TD*%
%TO.C,C9*%
X100000000Y-93000000D03*
X100000000Y-92030000D03*
%TD*%
D23*
%TO.C,C12*%
X106000000Y-101200000D03*
X106970000Y-101200000D03*
%TD*%
D19*
%TO.C,C14*%
X100381000Y-106000000D03*
X100381000Y-106970000D03*
%TD*%
%TO.C,R3*%
X101000000Y-93030000D03*
X101000000Y-94000000D03*
%TD*%
%TO.C,C7*%
X101500000Y-106000000D03*
X101500000Y-106970000D03*
%TD*%
D16*
%TO.C,C1*%
X107000000Y-76500000D03*
X108875000Y-76500000D03*
%TD*%
D17*
%TO.C,C11*%
X94980000Y-96940000D03*
X94980000Y-95970000D03*
%TD*%
D23*
%TO.C,C16*%
X104700000Y-95350000D03*
X105670000Y-95350000D03*
%TD*%
D24*
%TO.C,U3*%
X96562500Y-97400000D03*
X96562500Y-97800000D03*
X96562500Y-98200000D03*
X96562500Y-98600000D03*
X96562500Y-99000000D03*
X96562500Y-99400000D03*
X96562500Y-99800000D03*
X96562500Y-100200000D03*
X96562500Y-100600000D03*
X96562500Y-101000000D03*
X96562500Y-101400000D03*
X96562500Y-101800000D03*
X96562500Y-102200000D03*
X96562500Y-102600000D03*
D25*
X97400000Y-103437500D03*
X97800000Y-103437500D03*
X98200000Y-103437500D03*
X98600000Y-103437500D03*
X99000000Y-103437500D03*
X99400000Y-103437500D03*
X99800000Y-103437500D03*
X100200000Y-103437500D03*
X100600000Y-103437500D03*
X101000000Y-103437500D03*
X101400000Y-103437500D03*
X101800000Y-103437500D03*
X102200000Y-103437500D03*
X102600000Y-103437500D03*
D24*
X103437500Y-102600000D03*
X103437500Y-102200000D03*
X103437500Y-101800000D03*
X103437500Y-101400000D03*
X103437500Y-101000000D03*
X103437500Y-100600000D03*
X103437500Y-100200000D03*
X103437500Y-99800000D03*
X103437500Y-99400000D03*
X103437500Y-99000000D03*
X103437500Y-98600000D03*
X103437500Y-98200000D03*
X103437500Y-97800000D03*
X103437500Y-97400000D03*
D25*
X102600000Y-96562500D03*
X102200000Y-96562500D03*
X101800000Y-96562500D03*
X101400000Y-96562500D03*
X101000000Y-96562500D03*
X100600000Y-96562500D03*
X100200000Y-96562500D03*
X99800000Y-96562500D03*
X99400000Y-96562500D03*
X99000000Y-96562500D03*
X98600000Y-96562500D03*
X98200000Y-96562500D03*
X97800000Y-96562500D03*
X97400000Y-96562500D03*
D26*
X100000000Y-100000000D03*
%TD*%
D18*
%TO.C,C2*%
X97000000Y-109000000D03*
X96030000Y-109000000D03*
%TD*%
D27*
%TO.C,H2*%
X130590000Y-71850000D03*
%TD*%
D19*
%TO.C,R4*%
X102000000Y-93030000D03*
X102000000Y-94000000D03*
%TD*%
D27*
%TO.C,H3*%
X130590000Y-122000000D03*
%TD*%
D17*
%TO.C,C6*%
X99000000Y-93000000D03*
X99000000Y-92030000D03*
%TD*%
D23*
%TO.C,C15*%
X104700000Y-96390000D03*
X105670000Y-96390000D03*
%TD*%
D19*
%TO.C,R5*%
X98700000Y-106630000D03*
X98700000Y-107600000D03*
%TD*%
D27*
%TO.C,H1*%
X67590000Y-72000000D03*
%TD*%
%TO.C,H4*%
X67590000Y-122000000D03*
%TD*%
D28*
%TO.C,Y1*%
X93341000Y-113116000D03*
X102341000Y-113116000D03*
%TD*%
D29*
%TO.C,J12*%
X68000000Y-104500000D03*
D30*
X70500000Y-104500000D03*
X73000000Y-104500000D03*
X75500000Y-104500000D03*
X78000000Y-104500000D03*
%TD*%
D29*
%TO.C,J3*%
X118090000Y-111475000D03*
D30*
X120590000Y-111475000D03*
X123090000Y-111475000D03*
X125590000Y-111475000D03*
X128090000Y-111475000D03*
X130590000Y-111475000D03*
%TD*%
D31*
%TO.C,C20*%
X73580000Y-115950000D03*
X74540000Y-115950000D03*
%TD*%
D32*
%TO.C,R24*%
X74870000Y-79600000D03*
X73910000Y-79600000D03*
%TD*%
D31*
%TO.C,R12*%
X85150000Y-115090000D03*
X86110000Y-115090000D03*
%TD*%
D33*
%TO.C,R19*%
X116840000Y-98480000D03*
X116840000Y-97520000D03*
%TD*%
D34*
%TO.C,Q1*%
X116152500Y-79475000D03*
X116152500Y-81375000D03*
X118027500Y-80425000D03*
%TD*%
D35*
%TO.C,J14*%
X90265000Y-121950000D03*
D36*
X92805000Y-121950000D03*
X95345000Y-121950000D03*
X97885000Y-121950000D03*
X100425000Y-121950000D03*
X102965000Y-121950000D03*
X105505000Y-121950000D03*
X108045000Y-121950000D03*
X110585000Y-121950000D03*
X113125000Y-121950000D03*
X115665000Y-121950000D03*
X118205000Y-121950000D03*
%TD*%
D29*
%TO.C,J8*%
X123090000Y-83475000D03*
D30*
X125590000Y-83475000D03*
X128090000Y-83475000D03*
X130590000Y-83475000D03*
%TD*%
D33*
%TO.C,R21*%
X84090000Y-83180000D03*
X84090000Y-82220000D03*
%TD*%
D32*
%TO.C,R9*%
X111540000Y-112150000D03*
X110580000Y-112150000D03*
%TD*%
D37*
%TO.C,R23*%
X82770000Y-100500000D03*
X82770000Y-101460000D03*
%TD*%
D32*
%TO.C,C18*%
X111540000Y-110950000D03*
X110580000Y-110950000D03*
%TD*%
D38*
%TO.C,JP1*%
X119290000Y-117050000D03*
D39*
X117990000Y-117050000D03*
D40*
X116690000Y-117050000D03*
%TD*%
D29*
%TO.C,J7*%
X79690000Y-120025000D03*
D30*
X82190000Y-120025000D03*
X84690000Y-120025000D03*
%TD*%
D41*
%TO.C,SW1*%
X93460000Y-78310000D03*
X89360000Y-78310000D03*
X93460000Y-79910000D03*
X89360000Y-79910000D03*
%TD*%
D42*
%TO.C,JP2*%
X72170000Y-117870000D03*
D39*
X73470000Y-117870000D03*
D43*
X74770000Y-117870000D03*
%TD*%
D37*
%TO.C,R22*%
X116590000Y-103510000D03*
X116590000Y-104470000D03*
%TD*%
D29*
%TO.C,J6*%
X68000000Y-90500000D03*
D30*
X70500000Y-90500000D03*
X73000000Y-90500000D03*
X75500000Y-90500000D03*
X78000000Y-90500000D03*
%TD*%
D44*
%TO.C,R7*%
X97130000Y-76800000D03*
X97130000Y-77820000D03*
%TD*%
D31*
%TO.C,C21*%
X87140000Y-111960000D03*
X88100000Y-111960000D03*
%TD*%
%TO.C,C24*%
X87060000Y-116170000D03*
X88020000Y-116170000D03*
%TD*%
%TO.C,R18*%
X115910000Y-84530000D03*
X116870000Y-84530000D03*
%TD*%
D37*
%TO.C,R25*%
X80800000Y-85280000D03*
X80800000Y-86240000D03*
%TD*%
%TO.C,C23*%
X75440000Y-122370000D03*
X75440000Y-123330000D03*
%TD*%
D31*
%TO.C,R16*%
X113120000Y-79325000D03*
X114080000Y-79325000D03*
%TD*%
%TO.C,R17*%
X127110000Y-79300000D03*
X128070000Y-79300000D03*
%TD*%
D29*
%TO.C,J13*%
X68000000Y-83500000D03*
D30*
X70500000Y-83500000D03*
X73000000Y-83500000D03*
X75500000Y-83500000D03*
%TD*%
D37*
%TO.C,R15*%
X83100000Y-92140000D03*
X83100000Y-93100000D03*
%TD*%
D31*
%TO.C,R11*%
X87170000Y-110700000D03*
X88130000Y-110700000D03*
%TD*%
D33*
%TO.C,R20*%
X83100000Y-95500000D03*
X83100000Y-94540000D03*
%TD*%
D42*
%TO.C,JP3*%
X72170000Y-120570000D03*
D39*
X73470000Y-120570000D03*
D43*
X74770000Y-120570000D03*
%TD*%
D29*
%TO.C,J9*%
X120590000Y-97475000D03*
D30*
X123090000Y-97475000D03*
X125590000Y-97475000D03*
X128090000Y-97475000D03*
X130590000Y-97475000D03*
%TD*%
D37*
%TO.C,R14*%
X116930000Y-89500000D03*
X116930000Y-90460000D03*
%TD*%
D31*
%TO.C,R10*%
X85230000Y-110700000D03*
X86190000Y-110700000D03*
%TD*%
D29*
%TO.C,J10*%
X68000000Y-97500000D03*
D30*
X70500000Y-97500000D03*
X73000000Y-97500000D03*
X75500000Y-97500000D03*
X78000000Y-97500000D03*
%TD*%
D29*
%TO.C,J5*%
X120590000Y-90475000D03*
D30*
X123090000Y-90475000D03*
X125590000Y-90475000D03*
X128090000Y-90475000D03*
X130590000Y-90475000D03*
%TD*%
D45*
%TO.C,Q2*%
X81727500Y-82050000D03*
X81727500Y-80150000D03*
X79852500Y-81100000D03*
%TD*%
D29*
%TO.C,J11*%
X120590000Y-104475000D03*
D30*
X123090000Y-104475000D03*
X125590000Y-104475000D03*
X128090000Y-104475000D03*
X130590000Y-104475000D03*
%TD*%
D31*
%TO.C,R13*%
X87080000Y-115080000D03*
X88040000Y-115080000D03*
%TD*%
D44*
%TO.C,R6*%
X102120000Y-76770000D03*
X102120000Y-77790000D03*
%TD*%
D32*
%TO.C,R8*%
X113570000Y-112160000D03*
X112610000Y-112160000D03*
%TD*%
D29*
%TO.C,J4*%
X68000000Y-111500000D03*
D30*
X70500000Y-111500000D03*
X73000000Y-111500000D03*
X75500000Y-111500000D03*
X78000000Y-111500000D03*
X80500000Y-111500000D03*
%TD*%
D31*
%TO.C,C17*%
X118110000Y-119000000D03*
X119070000Y-119000000D03*
%TD*%
M02*
